<?xml version="1.0" encoding="utf-8"?>
<!-- Generator: Adobe Illustrator 23.0.3, SVG Export Plug-In . SVG Version: 6.00 Build 0)  -->
<svg version="1.1" id="logo" xmlns="http://www.w3.org/2000/svg" xmlns:xlink="http://www.w3.org/1999/xlink" x="0px" y="0px"
	 viewBox="0 0 256 256" style="enable-background:new 0 0 256 256;" xml:space="preserve">
<style type="text/css">
	.st0{fill:#FFFFFF;}
</style>
<path class="st0" d="M128,4.6c-53.6,0-97,43.4-97,97c0,22,7.3,42.3,19.7,58.6c17.7,23.3,77.3,91.3,77.3,91.3s59.6-67.9,77.3-91.3
	c12.4-16.3,19.7-36.6,19.7-58.6C225,48,181.6,4.6,128,4.6z M128.2,174.1c-40.8,0-73.9-33.1-73.9-73.9c0-40.8,33.1-73.9,73.9-73.9
	c40.8,0,73.9,33.1,73.9,73.9C202.1,141.1,169,174.1,128.2,174.1z"/>
<path class="st0" d="M181.6,52.2c0,0,0.9,5.2-1.6,8.7c-2.5,3.5-8.9,13-11.2,15.7c-2.2,2.8-17.3,20.5-33.6,32.7
	c6.6-14.6,6.1-27.6,6.1-27.6L181.6,52.2z"/>
<path class="st0" d="M105.3,110.4c-1.2-2.2-8.1-6.4-13.6-5.8c-5,0.6-18.2,7.1-22.3,13.9c-1.7-0.4-4.3-1.4-4.4-3.9
	c0-2.5-5.4-3.6-4.9,1c0.4,3.9,3,8.2,7.9,8.1c0,7.2,6.4,16,15.7,16.9c10.8,1.1,29.7-11.4,29.7-11.4l0.3-14.2
	C110.8,114.2,106.4,112.6,105.3,110.4z M93.4,130.9c-6.2,3.4-13.1,2.6-15.5-1.7c-2.3-4.3,0.8-10.5,7-13.9c6.2-3.4,13.1-2.6,15.5,1.7
	C102.7,121.3,99.6,127.5,93.4,130.9z"/>
<path class="st0" d="M117.6,101.7c1.5-2.7,4.4-4.5,7.7-4.5c4.9,0,8.9,4,8.9,8.9c0,0.8-0.1,1.6-0.3,2.4c2.2-6.4,4-14.6,4.3-17.7
	l2.4-58.8c0,0-6.2,3.3-7.7,8.2c-1.6,4.9-15.2,49-15,54.5C117.9,95.8,117.8,98.3,117.6,101.7z"/>
<path class="st0" d="M151.5,145c-0.1-2.6-0.5-4.9-1.1-6.5c-2.1-5.4-7.1-12.9-14.9-13c-4.6-0.1-6.3-0.4-6.8-2.9
	c-0.4-2.6,1.2-6,2.1-7.4c0.9-1.3,1.8-3.2,2.6-5.5c-1.4,3.1-4.5,5.3-8.1,5.3c-3.5,0-6.6-2.1-8-5.1c-0.3,7.9-0.5,17.8-0.3,26.6
	c0,0-0.1,27.8-0.1,28.8c2.7,0,8.7,0,10.7,0c0-1.3-0.1-21.7,0-22.9v0l0,0c0.5-5,2.8-6.6,6-7c4.1-0.5,7.1,2.7,7.9,9.7v17.6v2.6
	l9.9,3.3L151.5,145C151.5,145,151.5,145,151.5,145L151.5,145L151.5,145z"/>
<circle class="st0" cx="125.3" cy="106.1" r="5.8"/>
</svg>
